<?xml version="1.0" encoding="UTF-8" standalone="no"?>
<svg
   data-v-fde0c5aa=""
   viewBox="0 0 300 99.999997"
   class="iconLeft"
   version="1.1"
   id="svg44"
   sodipodi:docname="logo - Copy.svg"
   inkscape:version="1.2.1 (9c6d41e410, 2022-07-14)"
   width="300"
   height="100"
   xmlns:inkscape="http://www.inkscape.org/namespaces/inkscape"
   xmlns:sodipodi="http://sodipodi.sourceforge.net/DTD/sodipodi-0.dtd"
   xmlns:xlink="http://www.w3.org/1999/xlink"
   xmlns="http://www.w3.org/2000/svg"
   xmlns:svg="http://www.w3.org/2000/svg">
  <sodipodi:namedview
     id="namedview46"
     pagecolor="#ffffff"
     bordercolor="#000000"
     borderopacity="0.25"
     inkscape:showpageshadow="2"
     inkscape:pageopacity="0.0"
     inkscape:pagecheckerboard="0"
     inkscape:deskcolor="#d1d1d1"
     showgrid="false"
     inkscape:zoom="2.4206622"
     inkscape:cx="145.82787"
     inkscape:cy="4.7507662"
     inkscape:window-width="1350"
     inkscape:window-height="1230"
     inkscape:window-x="507"
     inkscape:window-y="171"
     inkscape:window-maximized="0"
     inkscape:current-layer="svg44" />
  <!---->
  <defs
     data-v-fde0c5aa=""
     id="defs25">
    <linearGradient
       data-v-fde0c5aa=""
       gradientTransform="rotate(25)"
       id="linearGradient22245"
       x1="0"
       y1="0"
       x2="1"
       y2="0">
      <stop
         data-v-fde0c5aa=""
         offset="0"
         stop-color="#00C4EE"
         stop-opacity="1"
         id="stop22243" />
      <stop
         data-v-fde0c5aa=""
         offset="1"
         stop-color="#000A68"
         stop-opacity="1"
         id="stop22241"
         style="stop-color:#001cb0;stop-opacity:1;" />
    </linearGradient>
    <rect
       x="104.57644"
       y="25.121714"
       width="174.09932"
       height="49.074978"
       id="rect229" />
    <!---->
    <linearGradient
       inkscape:collect="always"
       xlink:href="#eff3c97a-b401-4a29-8aaf-d1a93a547f70"
       id="linearGradient119"
       gradientTransform="matrix(1.074562,0,0,0.93061174,-0.28546197,0.28538004)"
       x1="9.0176277"
       y1="16.215139"
       x2="84.043549"
       y2="16.215139"
       gradientUnits="userSpaceOnUse" />
    <linearGradient
       inkscape:collect="always"
       xlink:href="#eff3c97a-b401-4a29-8aaf-d1a93a547f70"
       id="linearGradient121"
       gradientTransform="scale(1.074562,0.93061174)"
       x1="9.0176277"
       y1="16.215139"
       x2="84.043549"
       y2="16.215139"
       gradientUnits="userSpaceOnUse" />
    <linearGradient
       inkscape:collect="always"
       xlink:href="#linearGradient22245"
       id="linearGradient22239"
       x1="105.7155"
       y1="48.923069"
       x2="197.47217"
       y2="48.923069"
       gradientUnits="userSpaceOnUse" />
  </defs>
  <rect
     data-v-fde0c5aa=""
     fill="transparent"
     x="0"
     y="0"
     width="300"
     height="100"
     class="logo-background-square"
     id="rect27"
     style="stroke-width:0.577352" />
  <defs
     data-v-fde0c5aa=""
     id="defs29">
    <!---->
  </defs>
  <g
     data-v-fde0c5aa=""
     id="6ab3143d-12fd-48bc-93c2-560842ffb77f"
     fill="#000000"
     transform="translate(7.5949368,0.58422589)">
    <path
       d=""
       id="path31" />
  </g>
  <defs
     data-v-fde0c5aa=""
     id="defs39">
    <linearGradient
       data-v-fde0c5aa=""
       gradientTransform="rotate(25)"
       id="eff3c97a-b401-4a29-8aaf-d1a93a547f70"
       x1="0"
       y1="0"
       x2="1"
       y2="0">
      <stop
         data-v-fde0c5aa=""
         offset="0%"
         stop-color="#000A68"
         stop-opacity="1"
         id="stop34" />
      <stop
         data-v-fde0c5aa=""
         offset="100%"
         stop-color="#00C4EE"
         stop-opacity="1"
         id="stop36" />
    </linearGradient>
  </defs>
  <g
     data-v-fde0c5aa=""
     id="b7eaa11d-54f0-469e-bb38-ae1b38b46e30"
     stroke="none"
     fill="url(#eff3c97a-b401-4a29-8aaf-d1a93a547f70)"
     style="fill:url(#linearGradient121)"
     transform="matrix(1.4016448,0,0,1.4016448,-12.104822,-20.49782)">
    <path
       d="m 69.868537,15.375379 h -40.308 l -20.1559988,34.91 20.1559988,34.91 h 40.308 l 20.156,-34.91 z m -35.563,42.69 -16.247,-5.78 h 16.247 z m 3,-13.118 10.908,6.299 v 12.501 l -10.908,-6.299 z m 23.397,-2.645 -10.989,6.346 -10.99,-6.346 10.99,-6.345 z m -9.489,8.944 10.908,-6.299 v 12.501 l -10.908,6.299 z m -0.565,-18.213 12.723,-10.779 -7.853,13.591 z m 13.575,26.666 3.528,18.211 -8.768,-15.185 z m 0.898,-18.31 -6.139,-3.544 9.62,-16.663 15.946,27.603 z m -33.251,-22.014 h 33.157 l -15.302,13.125 -0.012,-0.007 -14.557,8.404 z m -0.823,1.41 3.236,20.958 0.021,-0.003 v 6.545 h -19.126 z m -15.869,31.5 19.126,6.847 v 0.049 l 14.492,8.368 -17.162,13.237 z m 17.561,28.91 17.108,-13.195 5.671,-3.274 9.51,16.47 h -32.289 z m 36.204,-2.394 -3.821,-19.725 v -16.528 l 20.282,7.737 z"
       id="path41"
       style="fill:url(#linearGradient119)" />
  </g>
  <!---->
  <text
     xml:space="preserve"
     id="text227"
     style="font-style:normal;font-variant:normal;font-weight:normal;font-stretch:normal;font-size:18.6667px;font-family:'Microsoft Sans Serif';-inkscape-font-specification:'Microsoft Sans Serif, Normal';font-variant-ligatures:normal;font-variant-caps:normal;font-variant-numeric:normal;font-variant-east-asian:normal;white-space:pre;shape-inside:url(#rect229);fill:url(#linearGradient22239);fill-opacity:1;stroke-width:0.999719;stroke-dasharray:none"
     transform="matrix(2.023557,0,0,1.9522148,-97.59029,-44.940472)"><tspan
       x="104.57617"
       y="41.935207"
       id="tspan22323">CyberTech </tspan><tspan
       x="104.57617"
       y="65.268581"
       id="tspan22325">Consulting</tspan></text>
  <circle
     id="path490"
     style="display:none;fill:#003c8c;fill-opacity:1;stroke:#000000"
     cx="142.55112"
     cy="33.300877"
     r="0.2941165" />
</svg>
