<?xml version="1.0" encoding="UTF-8" standalone="no"?>
<svg
   data-v-fde0c5aa=""
   viewBox="0 0 32 31.999999"
   class="iconLeft"
   version="1.1"
   id="svg44"
   sodipodi:docname="favicon-32x32.svg"
   inkscape:version="1.2.1 (9c6d41e410, 2022-07-14)"
   width="32"
   height="32"
   xmlns:inkscape="http://www.inkscape.org/namespaces/inkscape"
   xmlns:sodipodi="http://sodipodi.sourceforge.net/DTD/sodipodi-0.dtd"
   xmlns:xlink="http://www.w3.org/1999/xlink"
   xmlns="http://www.w3.org/2000/svg"
   xmlns:svg="http://www.w3.org/2000/svg">
  <sodipodi:namedview
     id="namedview46"
     pagecolor="#ffffff"
     bordercolor="#000000"
     borderopacity="0.25"
     inkscape:showpageshadow="2"
     inkscape:pageopacity="0.0"
     inkscape:pagecheckerboard="0"
     inkscape:deskcolor="#d1d1d1"
     showgrid="false"
     inkscape:zoom="3.4233333"
     inkscape:cx="44.839338"
     inkscape:cy="116.40701"
     inkscape:window-width="1350"
     inkscape:window-height="1230"
     inkscape:window-x="507"
     inkscape:window-y="171"
     inkscape:window-maximized="0"
     inkscape:current-layer="svg44" />
  <!---->
  <defs
     data-v-fde0c5aa=""
     id="defs25">
    <!---->
    <linearGradient
       inkscape:collect="always"
       xlink:href="#eff3c97a-b401-4a29-8aaf-d1a93a547f70"
       id="linearGradient119"
       gradientTransform="scale(1.074562,0.93061174)"
       x1="9.0176277"
       y1="16.215139"
       x2="84.043549"
       y2="16.215139"
       gradientUnits="userSpaceOnUse" />
    <linearGradient
       inkscape:collect="always"
       xlink:href="#eff3c97a-b401-4a29-8aaf-d1a93a547f70"
       id="linearGradient121"
       gradientTransform="scale(1.074562,0.93061174)"
       x1="9.0176277"
       y1="16.215139"
       x2="84.043549"
       y2="16.215139"
       gradientUnits="userSpaceOnUse" />
  </defs>
  <rect
     data-v-fde0c5aa=""
     fill="transparent"
     x="0"
     y="0"
     width="32"
     height="32"
     class="logo-background-square"
     id="rect27"
     style="stroke-width:0.106667" />
  <defs
     data-v-fde0c5aa=""
     id="defs29">
    <!---->
  </defs>
  <g
     data-v-fde0c5aa=""
     id="6ab3143d-12fd-48bc-93c2-560842ffb77f"
     fill="#000000"
     transform="scale(0.32)">
    <path
       d=""
       id="path31" />
  </g>
  <defs
     data-v-fde0c5aa=""
     id="defs39">
    <linearGradient
       data-v-fde0c5aa=""
       gradientTransform="rotate(25)"
       id="eff3c97a-b401-4a29-8aaf-d1a93a547f70"
       x1="0"
       y1="0"
       x2="1"
       y2="0">
      <stop
         data-v-fde0c5aa=""
         offset="0%"
         stop-color="#000A68"
         stop-opacity="1"
         id="stop34" />
      <stop
         data-v-fde0c5aa=""
         offset="100%"
         stop-color="#00C4EE"
         stop-opacity="1"
         id="stop36" />
    </linearGradient>
  </defs>
  <g
     data-v-fde0c5aa=""
     id="b7eaa11d-54f0-469e-bb38-ae1b38b46e30"
     stroke="none"
     fill="url(#eff3c97a-b401-4a29-8aaf-d1a93a547f70)"
     style="fill:url(#linearGradient121)"
     transform="matrix(0.32,0,0,0.32,0.093476,-0.186952)">
    <path
       d="M 70.154,15.09 H 29.846 L 9.69,50 29.846,84.91 H 70.154 L 90.31,50 Z M 34.591,57.78 18.344,52 h 16.247 z m 3,-13.118 10.908,6.299 V 63.462 L 37.591,57.163 Z m 23.397,-2.645 -10.989,6.346 -10.99,-6.346 10.99,-6.345 z m -9.489,8.944 10.908,-6.299 V 57.163 L 51.499,63.462 Z M 50.934,32.748 63.657,21.969 55.804,35.56 Z M 64.509,59.414 68.037,77.625 59.269,62.44 Z M 65.407,41.104 59.268,37.56 68.888,20.897 84.834,48.5 Z M 32.156,19.09 H 65.313 L 50.011,32.215 49.999,32.208 35.442,40.612 Z m -0.823,1.41 3.236,20.958 0.021,-0.003 V 48 H 15.464 Z M 15.464,52 34.59,58.847 v 0.049 L 49.082,67.264 31.92,80.501 Z m 17.561,28.91 17.108,-13.195 5.671,-3.274 9.51,16.47 H 33.025 Z M 69.229,78.516 65.408,58.791 V 42.263 L 85.69,50 Z"
       id="path41"
       style="fill:url(#linearGradient119)" />
  </g>
  <!---->
</svg>
